<svg xmlns="http://www.w3.org/2000/svg" xmlns:xlink="http://www.w3.org/1999/xlink" width="500" zoomAndPan="magnify" viewBox="0 0 375 374.999991" height="500" preserveAspectRatio="xMidYMid meet" version="1.0"><defs><g/><clipPath id="da08391ce9"><path d="M 182 175 L 209 175 L 209 204 L 182 204 Z M 182 175 " clip-rule="nonzero"/></clipPath><clipPath id="923b44a927"><path d="M 182.601562 174.070312 L 209.535156 175.957031 L 207.492188 205.136719 L 180.558594 203.25 Z M 182.601562 174.070312 " clip-rule="nonzero"/></clipPath><clipPath id="07152f6527"><path d="M 182.601562 174.070312 L 209.535156 175.957031 L 207.492188 205.136719 L 180.558594 203.25 Z M 182.601562 174.070312 " clip-rule="nonzero"/></clipPath><clipPath id="fdabbbbde1"><path d="M 182.601562 174.070312 L 209.535156 175.957031 L 207.492188 205.136719 L 180.558594 203.25 Z M 182.601562 174.070312 " clip-rule="nonzero"/></clipPath><clipPath id="f877e89749"><path d="M 52.238281 161.824219 L 169.988281 161.824219 L 169.988281 221.824219 L 52.238281 221.824219 Z M 52.238281 161.824219 " clip-rule="nonzero"/></clipPath><clipPath id="0b39d3ae91"><path d="M 252 159.1875 L 262 159.1875 L 262 169 L 252 169 Z M 252 159.1875 " clip-rule="nonzero"/></clipPath><clipPath id="bd8214b4b7"><path d="M 227.316406 163 L 337.566406 163 L 337.566406 215.4375 L 227.316406 215.4375 Z M 227.316406 163 " clip-rule="nonzero"/></clipPath></defs><rect x="-37.5" width="450" fill="#ffffff" y="-37.499999" height="449.999989" fill-opacity="1"/><rect x="-37.5" width="450" fill="#ffffff" y="-37.499999" height="449.999989" fill-opacity="1"/><g fill="#3d3b3a" fill-opacity="1"><g transform="translate(124.374375, 138.412247)"><g><path d="M -2.171875 -10.453125 C -2.566406 -10.296875 -2.941406 -10.09375 -3.296875 -9.84375 C -3.648438 -9.601562 -3.9375 -9.34375 -4.15625 -9.0625 C -4.507812 -8.632812 -4.691406 -8.21875 -4.703125 -7.8125 C -4.710938 -7.414062 -4.554688 -7.082031 -4.234375 -6.8125 C -3.898438 -6.539062 -3.507812 -6.460938 -3.0625 -6.578125 C -2.625 -6.703125 -2.078125 -6.957031 -1.421875 -7.34375 C -0.953125 -7.625 -0.519531 -7.832031 -0.125 -7.96875 C 0.269531 -8.113281 0.691406 -8.15625 1.140625 -8.09375 C 1.585938 -8.03125 2.046875 -7.804688 2.515625 -7.421875 C 2.929688 -7.078125 3.222656 -6.660156 3.390625 -6.171875 C 3.554688 -5.691406 3.578125 -5.179688 3.453125 -4.640625 C 3.328125 -4.097656 3.050781 -3.566406 2.625 -3.046875 C 2.226562 -2.554688 1.769531 -2.148438 1.25 -1.828125 C 0.738281 -1.503906 0.222656 -1.273438 -0.296875 -1.140625 L -0.75 -2.265625 C -0.320312 -2.390625 0.113281 -2.578125 0.5625 -2.828125 C 1.007812 -3.085938 1.363281 -3.375 1.625 -3.6875 C 1.96875 -4.113281 2.160156 -4.570312 2.203125 -5.0625 C 2.242188 -5.5625 2.050781 -5.984375 1.625 -6.328125 C 1.269531 -6.617188 0.875 -6.722656 0.4375 -6.640625 C 0.0078125 -6.554688 -0.492188 -6.34375 -1.078125 -6 C -1.597656 -5.71875 -2.054688 -5.492188 -2.453125 -5.328125 C -2.859375 -5.160156 -3.28125 -5.082031 -3.71875 -5.09375 C -4.164062 -5.113281 -4.597656 -5.296875 -5.015625 -5.640625 C -5.640625 -6.148438 -5.96875 -6.773438 -6 -7.515625 C -6.03125 -8.265625 -5.769531 -8.984375 -5.21875 -9.671875 C -4.519531 -10.515625 -3.664062 -11.125 -2.65625 -11.5 Z M -2.171875 -10.453125 "/></g></g></g><g fill="#3d3b3a" fill-opacity="1"><g transform="translate(131.306447, 130.363018)"><g><path d="M -5.046875 -9.21875 L 2.015625 -1.96875 L 1.046875 -1.015625 L -6.015625 -8.265625 Z M -5.046875 -9.21875 "/></g></g></g><g fill="#3d3b3a" fill-opacity="1"><g transform="translate(136.1693, 125.668842)"><g><path d="M 0.1875 -10.671875 C -0.226562 -10.597656 -0.632812 -10.484375 -1.03125 -10.328125 C -1.425781 -10.171875 -1.765625 -9.984375 -2.046875 -9.765625 C -2.484375 -9.421875 -2.753906 -9.050781 -2.859375 -8.65625 C -2.960938 -8.269531 -2.882812 -7.910156 -2.625 -7.578125 C -2.363281 -7.234375 -2.003906 -7.070312 -1.546875 -7.09375 C -1.085938 -7.113281 -0.492188 -7.238281 0.234375 -7.46875 C 0.753906 -7.644531 1.222656 -7.753906 1.640625 -7.796875 C 2.054688 -7.847656 2.476562 -7.796875 2.90625 -7.640625 C 3.332031 -7.484375 3.726562 -7.164062 4.09375 -6.6875 C 4.425781 -6.257812 4.617188 -5.785156 4.671875 -5.265625 C 4.734375 -4.753906 4.640625 -4.25 4.390625 -3.75 C 4.148438 -3.25 3.765625 -2.789062 3.234375 -2.375 C 2.742188 -1.988281 2.207031 -1.695312 1.625 -1.5 C 1.050781 -1.300781 0.5 -1.191406 -0.03125 -1.171875 L -0.234375 -2.390625 C 0.210938 -2.398438 0.679688 -2.476562 1.171875 -2.625 C 1.660156 -2.78125 2.070312 -2.988281 2.40625 -3.25 C 2.832031 -3.582031 3.117188 -3.984375 3.265625 -4.453125 C 3.410156 -4.921875 3.3125 -5.375 2.96875 -5.8125 C 2.6875 -6.175781 2.328125 -6.363281 1.890625 -6.375 C 1.460938 -6.382812 0.929688 -6.296875 0.296875 -6.109375 C -0.285156 -5.929688 -0.789062 -5.804688 -1.21875 -5.734375 C -1.65625 -5.671875 -2.085938 -5.691406 -2.515625 -5.796875 C -2.941406 -5.910156 -3.320312 -6.179688 -3.65625 -6.609375 C -4.144531 -7.242188 -4.316406 -7.925781 -4.171875 -8.65625 C -4.035156 -9.394531 -3.625 -10.039062 -2.9375 -10.59375 C -2.070312 -11.257812 -1.109375 -11.664062 -0.046875 -11.8125 Z M 0.1875 -10.671875 "/></g></g></g><g fill="#3d3b3a" fill-opacity="1"><g transform="translate(144.70909, 119.349832)"><g><path d="M -2.875 -10.109375 L 2.40625 -1.46875 L 1.234375 -0.765625 L -4.046875 -9.40625 Z M -2.875 -10.109375 "/></g></g></g><g fill="#3d3b3a" fill-opacity="1"><g transform="translate(150.386315, 115.77413)"><g><path d="M 5.328125 -13.421875 L 9.546875 -3.84375 L 9.5 -3.8125 L -0.34375 -7.71875 L 2.59375 -1.140625 L 1.328125 -0.59375 L -2.890625 -10.140625 L -2.8125 -10.171875 L 7.0625 -6.171875 L 4.078125 -12.859375 Z M 5.328125 -13.421875 "/></g></g></g><g fill="#3d3b3a" fill-opacity="1"><g transform="translate(163.479891, 110.445083)"><g/></g></g><g fill="#3d3b3a" fill-opacity="1"><g transform="translate(170.083354, 108.512412)"><g><path d="M 7.75 -1.21875 L 6.75 -2.203125 C 6.507812 -1.773438 6.160156 -1.40625 5.703125 -1.09375 C 5.253906 -0.789062 4.722656 -0.59375 4.109375 -0.5 C 3.484375 -0.40625 2.898438 -0.445312 2.359375 -0.625 C 1.828125 -0.8125 1.378906 -1.101562 1.015625 -1.5 C 0.648438 -1.894531 0.425781 -2.378906 0.34375 -2.953125 C 0.269531 -3.410156 0.316406 -3.859375 0.484375 -4.296875 C 0.660156 -4.734375 0.925781 -5.128906 1.28125 -5.484375 C 1.644531 -5.835938 2.046875 -6.109375 2.484375 -6.296875 L 1.96875 -6.8125 C 1.382812 -7.425781 1.050781 -8.007812 0.96875 -8.5625 C 0.894531 -8.957031 0.929688 -9.34375 1.078125 -9.71875 C 1.234375 -10.101562 1.476562 -10.429688 1.8125 -10.703125 C 2.15625 -10.972656 2.578125 -11.148438 3.078125 -11.234375 C 3.585938 -11.304688 4.078125 -11.273438 4.546875 -11.140625 C 5.015625 -11.003906 5.414062 -10.804688 5.75 -10.546875 L 5.234375 -9.53125 C 4.523438 -10.007812 3.929688 -10.210938 3.453125 -10.140625 C 3.066406 -10.078125 2.773438 -9.90625 2.578125 -9.625 C 2.378906 -9.34375 2.304688 -9.03125 2.359375 -8.6875 C 2.410156 -8.351562 2.625 -7.976562 3 -7.5625 L 6.21875 -4.453125 L 6.78125 -7.09375 L 8.03125 -7.28125 L 7.1875 -3.515625 L 9.3125 -1.46875 Z M 4.09375 -1.734375 C 4.539062 -1.804688 4.910156 -1.957031 5.203125 -2.1875 C 5.503906 -2.425781 5.722656 -2.703125 5.859375 -3.015625 L 3.375 -5.453125 C 3.039062 -5.390625 2.738281 -5.242188 2.46875 -5.015625 C 2.195312 -4.796875 1.992188 -4.523438 1.859375 -4.203125 C 1.722656 -3.890625 1.679688 -3.5625 1.734375 -3.21875 C 1.816406 -2.6875 2.082031 -2.28125 2.53125 -2 C 2.988281 -1.726562 3.507812 -1.640625 4.09375 -1.734375 Z M 4.09375 -1.734375 "/></g></g></g><g fill="#3d3b3a" fill-opacity="1"><g transform="translate(182.576665, 106.882992)"><g/></g></g><g fill="#3d3b3a" fill-opacity="1"><g transform="translate(189.546073, 106.781465)"><g><path d="M 3.390625 -9.953125 L 2.8125 0.15625 L 1.453125 0.078125 L 2.03125 -10.03125 Z M 3.390625 -9.953125 "/></g></g></g><g fill="#3d3b3a" fill-opacity="1"><g transform="translate(196.273486, 107.157949)"><g><path d="M 3.734375 -4.953125 L 3.953125 -5.203125 L 8.78125 -8.71875 L 10.5 -8.40625 L 5.609375 -4.859375 L 8.953125 1.609375 L 7.265625 1.296875 L 4.484375 -4.171875 L 3.5 -3.53125 L 2.796875 0.5 L 1.4375 0.25 L 3.21875 -9.71875 L 4.578125 -9.46875 L 3.859375 -5.453125 Z M 3.734375 -4.953125 "/></g></g></g><g fill="#3d3b3a" fill-opacity="1"><g transform="translate(207.93673, 109.380538)"><g><path d="M 8.953125 3.140625 L 7.671875 2.703125 L 9.140625 -1.484375 L 4.125 -3.25 L 2.65625 0.9375 L 1.375 0.484375 L 4.734375 -9.0625 L 6.015625 -8.609375 L 4.5625 -4.46875 L 9.578125 -2.703125 L 11.03125 -6.84375 L 12.3125 -6.40625 Z M 8.953125 3.140625 "/></g></g></g><g fill="#3d3b3a" fill-opacity="1"><g transform="translate(220.382297, 114.064216)"><g><path d="M 11.328125 -5.421875 L 10.71875 -4.265625 L 8.3125 -5.546875 L 4.15625 2.21875 L 2.96875 1.578125 L 7.125 -6.1875 L 4.796875 -7.421875 L 5.40625 -8.578125 Z M 11.328125 -5.421875 "/></g></g></g><g fill="#3d3b3a" fill-opacity="1"><g transform="translate(229.634098, 119.286123)"><g><path d="M 8.046875 -6.75 L 2.3125 1.59375 L 1.203125 0.828125 L 6.9375 -7.515625 Z M 8.046875 -6.75 "/></g></g></g><g fill="#3d3b3a" fill-opacity="1"><g transform="translate(235.192527, 123.088778)"><g><path d="M 6.828125 2.5 L 3.921875 -0.078125 L 1.34375 1.1875 L 0.34375 0.296875 L 10.640625 -4.671875 L 10.6875 -4.625 L 7.015625 6.203125 L 5.859375 5.171875 Z M 7.265625 1.296875 L 8.625 -2.421875 L 5.0625 -0.65625 Z M 7.265625 1.296875 "/></g></g></g><g fill="#3d3b3a" fill-opacity="1"><g transform="translate(244.18567, 131.306443)"><g><path d="M 4.5 5.40625 L 5.84375 1.171875 C 5.789062 1.128906 5.71875 1.050781 5.625 0.9375 L 4.65625 -0.21875 L 1.796875 2.15625 L 0.9375 1.109375 L 8.71875 -5.375 L 10.4375 -3.296875 C 10.875 -2.765625 11.171875 -2.210938 11.328125 -1.640625 C 11.492188 -1.066406 11.492188 -0.515625 11.328125 0.015625 C 11.171875 0.554688 10.835938 1.039062 10.328125 1.46875 C 9.835938 1.863281 9.304688 2.125 8.734375 2.25 C 8.160156 2.375 7.585938 2.304688 7.015625 2.046875 L 5.515625 6.609375 Z M 6.609375 0.0625 C 7.078125 0.613281 7.5625 0.894531 8.0625 0.90625 C 8.5625 0.914062 9.003906 0.757812 9.390625 0.4375 C 9.617188 0.25 9.800781 0.0078125 9.9375 -0.28125 C 10.070312 -0.570312 10.113281 -0.890625 10.0625 -1.234375 C 10.019531 -1.585938 9.851562 -1.9375 9.5625 -2.28125 L 8.5625 -3.484375 L 5.671875 -1.078125 Z M 6.609375 0.0625 "/></g></g></g><g clip-path="url(#da08391ce9)"><g clip-path="url(#923b44a927)"><g clip-path="url(#07152f6527)"><g clip-path="url(#fdabbbbde1)"><path fill="#232323" d="M 208.523438 180.792969 C 208.078125 177.871094 206.132812 175.902344 203.390625 175.597656 C 202.027344 175.449219 200.730469 175.734375 199.503906 176.3125 C 196.546875 177.703125 194.570312 180.074219 192.925781 182.769531 C 192.730469 183.089844 192.527344 183.40625 192.234375 183.867188 C 192.0625 183.476562 191.972656 183.246094 191.855469 183.027344 C 191.480469 182.320312 191.167969 181.566406 190.703125 180.917969 C 189.160156 178.765625 186.464844 178.46875 184.480469 180.230469 C 182.476562 182.003906 181.886719 184.289062 182.519531 186.796875 C 183.472656 190.585938 186.1875 192.863281 189.667969 194.398438 C 188.613281 193.605469 187.484375 192.882812 186.515625 191.996094 C 184.554688 190.195312 183.363281 187.984375 183.472656 185.273438 C 183.554688 183.167969 184.496094 181.488281 186.414062 180.46875 C 187.660156 179.804688 188.859375 180.058594 189.671875 181.203125 C 190.160156 181.890625 190.597656 182.671875 190.816406 183.476562 C 191.125 184.613281 191.195312 185.8125 191.417969 186.976562 C 191.472656 187.261719 191.722656 187.511719 191.882812 187.777344 C 192.042969 187.546875 192.269531 187.332031 192.351562 187.078125 C 192.605469 186.289062 192.753906 185.46875 193.027344 184.691406 C 194.433594 180.699219 197.105469 177.917969 201.261719 176.726562 C 204.59375 175.773438 207.109375 177.863281 206.957031 181.304688 C 206.890625 182.832031 206.46875 184.257812 205.8125 185.625 C 204.078125 189.234375 201.484375 192.195312 198.554688 194.882812 C 194.6875 198.433594 190.464844 201.4375 185.265625 202.84375 C 185.0625 202.898438 184.882812 203.039062 184.6875 203.144531 C 184.695312 203.210938 184.699219 203.28125 184.707031 203.351562 C 184.984375 203.417969 185.277344 203.570312 185.539062 203.535156 C 186.46875 203.414062 187.417969 203.320312 188.304688 203.046875 C 191.027344 202.210938 193.515625 200.894531 195.851562 199.300781 C 199.972656 196.484375 203.6875 193.253906 206.378906 189.015625 C 207.96875 186.511719 208.984375 183.828125 208.523438 180.789062 Z M 208.523438 180.792969 " fill-opacity="1" fill-rule="nonzero"/></g></g></g></g><g fill="#3d3b3a" fill-opacity="1"><g transform="translate(108.681855, 239.115003)"><g><path d="M 9.53125 -2.03125 L 1.625 2.703125 L 0.921875 1.546875 L 7.703125 -2.515625 L 7.15625 -3.4375 L 8.28125 -4.109375 Z M 9.53125 -2.03125 "/></g></g></g><g fill="#3d3b3a" fill-opacity="1"><g transform="translate(112.708891, 245.691573)"><g><path d="M 9.59375 -2.484375 C 9.96875 -1.984375 10.191406 -1.445312 10.265625 -0.875 C 10.347656 -0.300781 10.28125 0.242188 10.0625 0.765625 C 9.84375 1.285156 9.484375 1.734375 8.984375 2.109375 C 8.253906 2.648438 7.460938 2.96875 6.609375 3.0625 C 5.753906 3.15625 4.921875 3.109375 4.109375 2.921875 C 3.296875 2.734375 2.363281 2.457031 1.3125 2.09375 L 1.578125 0.734375 C 2.398438 1.148438 3.175781 1.457031 3.90625 1.65625 C 4.644531 1.851562 5.296875 1.9375 5.859375 1.90625 C 5.316406 1.769531 4.832031 1.410156 4.40625 0.828125 C 4.125 0.453125 3.957031 0.0195312 3.90625 -0.46875 C 3.851562 -0.96875 3.925781 -1.453125 4.125 -1.921875 C 4.320312 -2.398438 4.640625 -2.804688 5.078125 -3.140625 C 5.585938 -3.515625 6.128906 -3.726562 6.703125 -3.78125 C 7.273438 -3.832031 7.816406 -3.742188 8.328125 -3.515625 C 8.835938 -3.285156 9.257812 -2.941406 9.59375 -2.484375 Z M 6 -2.0625 C 5.550781 -1.726562 5.296875 -1.3125 5.234375 -0.8125 C 5.171875 -0.320312 5.300781 0.132812 5.625 0.5625 C 5.945312 0.988281 6.34375 1.242188 6.8125 1.328125 C 7.28125 1.421875 7.707031 1.320312 8.09375 1.03125 L 8.3125 0.875 C 8.707031 0.550781 8.9375 0.144531 9 -0.34375 C 9.0625 -0.832031 8.941406 -1.28125 8.640625 -1.6875 C 8.316406 -2.113281 7.90625 -2.363281 7.40625 -2.4375 C 6.914062 -2.519531 6.445312 -2.394531 6 -2.0625 Z M 6 -2.0625 "/></g></g></g><g fill="#3d3b3a" fill-opacity="1"><g transform="translate(119.226423, 254.152212)"><g><path d="M 12.46875 -1.609375 L 11.515625 -0.703125 L 9.640625 -2.671875 L 3.265625 3.40625 L 2.3125 2.4375 L 8.6875 -3.640625 L 6.875 -5.5625 L 7.828125 -6.46875 Z M 12.46875 -1.609375 "/></g></g></g><g fill="#3d3b3a" fill-opacity="1"><g transform="translate(127.161498, 262.277828)"><g><path d="M 7.453125 5.875 L 6.375 5.03125 L 9.125 1.546875 L 4.953125 -1.75 L 2.203125 1.734375 L 1.140625 0.90625 L 7.40625 -7.046875 L 8.46875 -6.21875 L 5.75 -2.765625 L 9.921875 0.53125 L 12.640625 -2.921875 L 13.71875 -2.078125 Z M 7.453125 5.875 "/></g></g></g><g fill="#3d3b3a" fill-opacity="1"><g transform="translate(138.439309, 270.680827)"><g/></g></g><g fill="#3d3b3a" fill-opacity="1"><g transform="translate(144.904964, 274.670693)"><g><path d="M 2.8125 -4.265625 C 3.195312 -5.109375 3.765625 -5.796875 4.515625 -6.328125 C 5.265625 -6.867188 6.09375 -7.191406 7 -7.296875 C 7.914062 -7.410156 8.796875 -7.273438 9.640625 -6.890625 C 10.492188 -6.515625 11.1875 -5.945312 11.71875 -5.1875 C 12.25 -4.425781 12.566406 -3.585938 12.671875 -2.671875 C 12.773438 -1.753906 12.632812 -0.875 12.25 -0.03125 C 11.875 0.820312 11.3125 1.507812 10.5625 2.03125 C 9.8125 2.5625 8.976562 2.875 8.0625 2.96875 C 7.144531 3.0625 6.257812 2.921875 5.40625 2.546875 C 4.5625 2.160156 3.875 1.597656 3.34375 0.859375 C 2.8125 0.117188 2.492188 -0.703125 2.390625 -1.609375 C 2.285156 -2.515625 2.425781 -3.398438 2.8125 -4.265625 Z M 4.09375 -3.703125 C 3.8125 -3.066406 3.703125 -2.40625 3.765625 -1.71875 C 3.835938 -1.039062 4.066406 -0.425781 4.453125 0.125 C 4.847656 0.675781 5.359375 1.09375 5.984375 1.375 C 6.617188 1.65625 7.265625 1.753906 7.921875 1.671875 C 8.585938 1.597656 9.191406 1.359375 9.734375 0.953125 C 10.273438 0.546875 10.6875 0.0234375 10.96875 -0.609375 C 11.257812 -1.253906 11.375 -1.914062 11.3125 -2.59375 C 11.257812 -3.269531 11.039062 -3.882812 10.65625 -4.4375 C 10.269531 -5 9.753906 -5.421875 9.109375 -5.703125 C 8.484375 -5.984375 7.832031 -6.082031 7.15625 -6 C 6.488281 -5.914062 5.882812 -5.671875 5.34375 -5.265625 C 4.800781 -4.859375 4.382812 -4.335938 4.09375 -3.703125 Z M 4.09375 -3.703125 "/></g></g></g><g fill="#3d3b3a" fill-opacity="1"><g transform="translate(158.946988, 280.598365)"><g><path d="M 8.78125 1.609375 C 8.40625 1.722656 7.953125 1.800781 7.421875 1.84375 C 6.890625 1.894531 6.335938 1.84375 5.765625 1.6875 C 4.773438 1.414062 3.957031 0.953125 3.3125 0.296875 C 2.664062 -0.347656 2.238281 -1.097656 2.03125 -1.953125 C 1.832031 -2.804688 1.859375 -3.6875 2.109375 -4.59375 C 2.367188 -5.550781 2.804688 -6.359375 3.421875 -7.015625 C 4.046875 -7.679688 4.785156 -8.128906 5.640625 -8.359375 C 6.492188 -8.597656 7.390625 -8.59375 8.328125 -8.34375 C 8.867188 -8.195312 9.359375 -7.984375 9.796875 -7.703125 C 10.234375 -7.429688 10.609375 -7.128906 10.921875 -6.796875 L 10.078125 -5.703125 C 9.460938 -6.410156 8.773438 -6.867188 8.015625 -7.078125 C 7.390625 -7.253906 6.765625 -7.242188 6.140625 -7.046875 C 5.515625 -6.859375 4.960938 -6.519531 4.484375 -6.03125 C 4.003906 -5.550781 3.671875 -4.96875 3.484375 -4.28125 C 3.296875 -3.582031 3.269531 -2.910156 3.40625 -2.265625 C 3.550781 -1.617188 3.847656 -1.0625 4.296875 -0.59375 C 4.753906 -0.125 5.34375 0.207031 6.0625 0.40625 C 6.9375 0.644531 7.757812 0.601562 8.53125 0.28125 Z M 8.78125 1.609375 "/></g></g></g><g fill="#3d3b3a" fill-opacity="1"><g transform="translate(171.457241, 283.72766)"><g><path d="M 8.703125 -9.0625 L 8.53125 -7.765625 L 5.828125 -8.109375 L 4.671875 0.625 L 3.328125 0.4375 L 4.484375 -8.296875 L 1.875 -8.640625 L 2.046875 -9.9375 Z M 8.703125 -9.0625 "/></g></g></g><g fill="#3d3b3a" fill-opacity="1"><g transform="translate(182.751077, 285.12494)"><g><path d="M 0.75 -5.0625 C 0.738281 -5.988281 0.957031 -6.847656 1.40625 -7.640625 C 1.851562 -8.441406 2.46875 -9.085938 3.25 -9.578125 C 4.039062 -10.066406 4.898438 -10.316406 5.828125 -10.328125 C 6.753906 -10.335938 7.617188 -10.113281 8.421875 -9.65625 C 9.222656 -9.195312 9.863281 -8.570312 10.34375 -7.78125 C 10.832031 -7 11.082031 -6.144531 11.09375 -5.21875 C 11.101562 -4.289062 10.878906 -3.425781 10.421875 -2.625 C 9.972656 -1.832031 9.351562 -1.195312 8.5625 -0.71875 C 7.769531 -0.238281 6.910156 0.00390625 5.984375 0.015625 C 5.054688 0.0234375 4.191406 -0.1875 3.390625 -0.625 C 2.597656 -1.070312 1.960938 -1.6875 1.484375 -2.46875 C 1.003906 -3.25 0.757812 -4.113281 0.75 -5.0625 Z M 2.140625 -5.078125 C 2.148438 -4.378906 2.328125 -3.738281 2.671875 -3.15625 C 3.023438 -2.570312 3.492188 -2.113281 4.078125 -1.78125 C 4.671875 -1.445312 5.3125 -1.285156 6 -1.296875 C 6.695312 -1.304688 7.328125 -1.484375 7.890625 -1.828125 C 8.460938 -2.179688 8.90625 -2.65625 9.21875 -3.25 C 9.539062 -3.851562 9.695312 -4.503906 9.6875 -5.203125 C 9.675781 -5.910156 9.5 -6.554688 9.15625 -7.140625 C 8.8125 -7.734375 8.347656 -8.195312 7.765625 -8.53125 C 7.179688 -8.875 6.539062 -9.039062 5.84375 -9.03125 C 5.15625 -9.019531 4.523438 -8.832031 3.953125 -8.46875 C 3.378906 -8.101562 2.929688 -7.617188 2.609375 -7.015625 C 2.285156 -6.421875 2.128906 -5.773438 2.140625 -5.078125 Z M 2.140625 -5.078125 "/></g></g></g><g fill="#3d3b3a" fill-opacity="1"><g transform="translate(197.960313, 284.520475)"><g><path d="M 5.03125 -6.15625 C 5.625 -6.03125 6.117188 -5.789062 6.515625 -5.4375 C 6.921875 -5.09375 7.171875 -4.648438 7.265625 -4.109375 C 7.367188 -3.460938 7.300781 -2.90625 7.0625 -2.4375 C 6.832031 -1.96875 6.476562 -1.59375 6 -1.3125 C 5.53125 -1.03125 5 -0.835938 4.40625 -0.734375 L 1.4375 -0.234375 L -0.234375 -10.21875 L 2.34375 -10.65625 C 3.363281 -10.820312 4.191406 -10.742188 4.828125 -10.421875 C 5.472656 -10.097656 5.863281 -9.519531 6 -8.6875 C 6.082031 -8.164062 6.035156 -7.6875 5.859375 -7.25 C 5.691406 -6.820312 5.414062 -6.457031 5.03125 -6.15625 Z M 1.84375 -6.09375 L 3.359375 -6.34375 C 3.867188 -6.425781 4.226562 -6.632812 4.4375 -6.96875 C 4.65625 -7.3125 4.726562 -7.71875 4.65625 -8.1875 C 4.570312 -8.6875 4.351562 -9.03125 4 -9.21875 C 3.644531 -9.414062 3.179688 -9.46875 2.609375 -9.375 L 1.328125 -9.15625 Z M 4.140625 -1.984375 C 4.722656 -2.078125 5.175781 -2.285156 5.5 -2.609375 C 5.832031 -2.929688 5.957031 -3.347656 5.875 -3.859375 C 5.789062 -4.378906 5.519531 -4.726562 5.0625 -4.90625 C 4.613281 -5.082031 4.101562 -5.125 3.53125 -5.03125 L 2.0625 -4.78125 L 2.578125 -1.71875 Z M 4.140625 -1.984375 "/></g></g></g><g fill="#3d3b3a" fill-opacity="1"><g transform="translate(209.612449, 282.370551)"><g><path d="M 4.6875 -12.046875 L 5.078125 -10.796875 L 0.09375 -9.25 L 1 -6.3125 L 5.453125 -7.6875 L 5.828125 -6.4375 L 1.375 -5.0625 L 2.296875 -2.078125 L 7.484375 -3.6875 L 7.875 -2.4375 L 1.390625 -0.421875 L -1.59375 -10.09375 Z M 4.6875 -12.046875 "/></g></g></g><g fill="#3d3b3a" fill-opacity="1"><g transform="translate(221.331838, 278.526593)"><g><path d="M 6.375 -2.96875 L 2.625 -5.359375 C 2.5625 -5.316406 2.460938 -5.265625 2.328125 -5.203125 L 0.96875 -4.5625 L 2.546875 -1.1875 L 1.3125 -0.609375 L -2.96875 -9.78125 L -0.515625 -10.921875 C 0.109375 -11.210938 0.71875 -11.363281 1.3125 -11.375 C 1.90625 -11.382812 2.441406 -11.238281 2.921875 -10.9375 C 3.398438 -10.644531 3.78125 -10.195312 4.0625 -9.59375 C 4.320312 -9.03125 4.4375 -8.453125 4.40625 -7.859375 C 4.382812 -7.273438 4.175781 -6.742188 3.78125 -6.265625 L 7.796875 -3.640625 Z M 1.734375 -6.390625 C 2.398438 -6.691406 2.800781 -7.082031 2.9375 -7.5625 C 3.070312 -8.050781 3.03125 -8.519531 2.8125 -8.96875 C 2.6875 -9.238281 2.5 -9.472656 2.25 -9.671875 C 2.007812 -9.878906 1.710938 -10.003906 1.359375 -10.046875 C 1.015625 -10.097656 0.640625 -10.023438 0.234375 -9.828125 L -1.1875 -9.171875 L 0.40625 -5.765625 Z M 1.734375 -6.390625 "/></g></g></g><g fill="#3d3b3a" fill-opacity="1"><g transform="translate(232.386987, 273.031076)"><g/></g></g><g fill="#3d3b3a" fill-opacity="1"><g transform="translate(238.764983, 269.059137)"><g><path d="M 4.8125 -5.296875 L 5.609375 -4.25 L 0.59375 -0.453125 L 0.6875 -1.109375 C 0.875 -2.429688 1 -3.488281 1.0625 -4.28125 C 1.132812 -5.082031 1.128906 -5.828125 1.046875 -6.515625 C 0.972656 -7.203125 0.773438 -7.765625 0.453125 -8.203125 C 0.109375 -8.660156 -0.285156 -8.90625 -0.734375 -8.9375 C -1.179688 -8.976562 -1.597656 -8.847656 -1.984375 -8.546875 C -2.285156 -8.316406 -2.488281 -8.0625 -2.59375 -7.78125 C -2.707031 -7.5 -2.738281 -7.226562 -2.6875 -6.96875 C -2.632812 -6.707031 -2.535156 -6.476562 -2.390625 -6.28125 C -2.035156 -5.8125 -1.59375 -5.53125 -1.0625 -5.4375 L -1.28125 -4.34375 C -1.632812 -4.300781 -2.019531 -4.398438 -2.4375 -4.640625 C -2.851562 -4.878906 -3.175781 -5.15625 -3.40625 -5.46875 C -3.71875 -5.882812 -3.90625 -6.34375 -3.96875 -6.84375 C -4.03125 -7.351562 -3.945312 -7.859375 -3.71875 -8.359375 C -3.5 -8.867188 -3.117188 -9.328125 -2.578125 -9.734375 C -2.128906 -10.078125 -1.648438 -10.273438 -1.140625 -10.328125 C -0.628906 -10.378906 -0.144531 -10.300781 0.3125 -10.09375 C 0.78125 -9.882812 1.175781 -9.566406 1.5 -9.140625 C 1.820312 -8.710938 2.046875 -8.207031 2.171875 -7.625 C 2.296875 -7.050781 2.347656 -6.46875 2.328125 -5.875 C 2.316406 -5.289062 2.273438 -4.535156 2.203125 -3.609375 L 2.171875 -3.296875 Z M 4.8125 -5.296875 "/></g></g></g><g fill="#3d3b3a" fill-opacity="1"><g transform="translate(247.270002, 262.421723)"><g><path d="M 3.15625 -3.03125 C 2.613281 -2.5 2 -2.160156 1.3125 -2.015625 C 0.632812 -1.878906 -0.0664062 -1.945312 -0.796875 -2.21875 C -1.523438 -2.5 -2.21875 -2.984375 -2.875 -3.671875 C -3.945312 -4.765625 -4.515625 -5.835938 -4.578125 -6.890625 C -4.648438 -7.941406 -4.25 -8.882812 -3.375 -9.71875 C -2.832031 -10.238281 -2.222656 -10.566406 -1.546875 -10.703125 C -0.867188 -10.847656 -0.164062 -10.78125 0.5625 -10.5 C 1.289062 -10.226562 1.988281 -9.753906 2.65625 -9.078125 C 3.332031 -8.378906 3.800781 -7.660156 4.0625 -6.921875 C 4.320312 -6.191406 4.375 -5.488281 4.21875 -4.8125 C 4.0625 -4.132812 3.707031 -3.539062 3.15625 -3.03125 Z M 2.234375 -3.953125 C 2.796875 -4.503906 3.015625 -5.144531 2.890625 -5.875 C 2.765625 -6.613281 2.34375 -7.359375 1.625 -8.109375 C 0.90625 -8.835938 0.1875 -9.269531 -0.53125 -9.40625 C -1.257812 -9.539062 -1.90625 -9.332031 -2.46875 -8.78125 C -3.039062 -8.226562 -3.265625 -7.585938 -3.140625 -6.859375 C -3.015625 -6.128906 -2.59375 -5.394531 -1.875 -4.65625 C -1.144531 -3.925781 -0.421875 -3.488281 0.296875 -3.34375 C 1.015625 -3.195312 1.660156 -3.398438 2.234375 -3.953125 Z M 2.234375 -3.953125 "/></g></g></g><g fill="#3d3b3a" fill-opacity="1"><g transform="translate(255.613629, 253.94737)"><g><path d="M 3.34375 -6.3125 L 4.375 -5.5 L 0.46875 -0.59375 L 0.40625 -1.25 C 0.238281 -2.570312 0.09375 -3.625 -0.03125 -4.40625 C -0.15625 -5.195312 -0.335938 -5.914062 -0.578125 -6.5625 C -0.828125 -7.21875 -1.164062 -7.71875 -1.59375 -8.0625 C -2.039062 -8.414062 -2.484375 -8.550781 -2.921875 -8.46875 C -3.367188 -8.394531 -3.742188 -8.164062 -4.046875 -7.78125 C -4.285156 -7.488281 -4.421875 -7.191406 -4.453125 -6.890625 C -4.492188 -6.597656 -4.453125 -6.328125 -4.328125 -6.078125 C -4.210938 -5.835938 -4.0625 -5.644531 -3.875 -5.5 C -3.414062 -5.132812 -2.921875 -4.972656 -2.390625 -5.015625 L -2.3125 -3.90625 C -2.65625 -3.769531 -3.054688 -3.765625 -3.515625 -3.890625 C -3.984375 -4.023438 -4.367188 -4.210938 -4.671875 -4.453125 C -5.078125 -4.773438 -5.367188 -5.171875 -5.546875 -5.640625 C -5.734375 -6.117188 -5.78125 -6.628906 -5.6875 -7.171875 C -5.601562 -7.722656 -5.347656 -8.265625 -4.921875 -8.796875 C -4.578125 -9.234375 -4.160156 -9.539062 -3.671875 -9.71875 C -3.191406 -9.90625 -2.695312 -9.953125 -2.1875 -9.859375 C -1.6875 -9.773438 -1.226562 -9.570312 -0.8125 -9.25 C -0.394531 -8.914062 -0.0546875 -8.484375 0.203125 -7.953125 C 0.460938 -7.421875 0.660156 -6.863281 0.796875 -6.28125 C 0.929688 -5.695312 1.082031 -4.953125 1.25 -4.046875 L 1.28125 -3.71875 Z M 3.34375 -6.3125 "/></g></g></g><g fill="#3d3b3a" fill-opacity="1"><g transform="translate(262.161486, 245.406057)"><g><path d="M -3.21875 -6.234375 C -2.894531 -6.753906 -2.503906 -7.125 -2.046875 -7.34375 C -1.585938 -7.5625 -1.109375 -7.644531 -0.609375 -7.59375 C -0.109375 -7.550781 0.375 -7.390625 0.84375 -7.109375 C 1.34375 -6.796875 1.722656 -6.398438 1.984375 -5.921875 C 2.253906 -5.441406 2.382812 -4.929688 2.375 -4.390625 C 2.363281 -3.859375 2.207031 -3.347656 1.90625 -2.859375 C 1.65625 -2.453125 1.332031 -2.097656 0.9375 -1.796875 C 0.539062 -1.503906 0.148438 -1.304688 -0.234375 -1.203125 L -0.765625 -2.390625 C -0.472656 -2.441406 -0.191406 -2.5625 0.078125 -2.75 C 0.347656 -2.945312 0.566406 -3.175781 0.734375 -3.4375 C 1.003906 -3.882812 1.082031 -4.332031 0.96875 -4.78125 C 0.863281 -5.238281 0.585938 -5.601562 0.140625 -5.875 C -0.335938 -6.175781 -0.804688 -6.285156 -1.265625 -6.203125 C -1.734375 -6.117188 -2.113281 -5.835938 -2.40625 -5.359375 C -2.570312 -5.085938 -2.691406 -4.804688 -2.765625 -4.515625 C -2.847656 -4.222656 -2.890625 -3.90625 -2.890625 -3.5625 L -2.90625 -3.546875 L -7.0625 -6.125 L -4.75 -9.875 L -3.625 -9.171875 L -5.328125 -6.421875 L -3.625 -5.375 C -3.519531 -5.664062 -3.382812 -5.953125 -3.21875 -6.234375 Z M -3.21875 -6.234375 "/></g></g></g><g clip-path="url(#f877e89749)"><path fill="#231f20" d="M 169.414062 183.15625 C 168.523438 183.171875 167.625 183.136719 166.761719 183.316406 C 164.21875 183.832031 161.8125 184.796875 159.394531 185.730469 C 153.332031 188.054688 147.515625 190.898438 141.816406 193.996094 C 140.691406 194.601562 139.597656 195.289062 138.464844 195.957031 C 138.261719 195.671875 138.074219 195.496094 137.996094 195.296875 C 137.039062 192.796875 136.015625 190.335938 134.648438 188.027344 C 133.542969 186.140625 132.625 184.164062 131.5625 182.246094 C 130.847656 180.949219 130.441406 179.5625 130.203125 178.117188 C 129.859375 176.035156 130.460938 174.253906 131.980469 172.820312 C 132.625 172.207031 133.367188 171.691406 134.113281 171.222656 C 134.75 170.824219 135.4375 170.515625 136.09375 170.144531 C 136.113281 170.136719 136.125 170.128906 136.144531 170.121094 L 136.144531 170.113281 C 138.789062 168.628906 141.53125 167.332031 144.40625 166.382812 C 146.347656 165.738281 148.464844 165.171875 150.523438 166.152344 C 150.90625 166.574219 151.289062 166.980469 151.726562 167.464844 C 152.203125 167.257812 152.628906 167.074219 153.066406 166.886719 C 153.242188 166.289062 153.410156 165.761719 153.546875 165.308594 C 153.277344 164.679688 153.058594 164.160156 152.828125 163.640625 C 152.796875 163.566406 152.734375 163.507812 152.6875 163.441406 C 151.191406 162.351562 150.441406 161.949219 149.210938 161.882812 C 148.167969 161.824219 147.117188 161.898438 146.066406 161.960938 C 143.515625 162.113281 141.191406 163.09375 138.847656 163.992188 C 136.261719 164.972656 133.769531 166.160156 131.578125 167.867188 C 130.4375 168.765625 129.226562 169.648438 128.359375 170.785156 C 128.105469 171.113281 127.960938 171.464844 127.753906 171.804688 C 126.582031 172.300781 125.417969 172.816406 124.214844 173.246094 C 119.554688 174.925781 114.984375 176.8125 110.308594 178.414062 C 102.972656 180.929688 95.554688 183.175781 88.046875 185.121094 C 79.484375 187.347656 70.871094 189.285156 62.160156 190.742188 C 54.195312 192.0625 46.1875 193.042969 38.136719 193.71875 C 28.992188 194.480469 19.871094 194.816406 10.742188 193.644531 C 6.640625 193.125 2.757812 191.921875 -0.800781 189.789062 C -1.3125 189.484375 -1.734375 189.027344 -2.1875 188.648438 C -1.464844 187.519531 -0.410156 186.738281 -0.707031 185.207031 C -1.011719 184.691406 -1.398438 184.046875 -1.804688 183.34375 C -2.757812 183.335938 -3.707031 183.332031 -4.257812 183.324219 C -7.109375 184.097656 -6.28125 186.671875 -7.40625 188.035156 C -6.9375 189.5 -6.339844 190.796875 -4.984375 191.433594 C -3.433594 192.171875 -1.839844 192.867188 -0.214844 193.398438 C 4 194.761719 8.363281 195.417969 12.765625 195.710938 C 22.246094 196.339844 31.714844 196.003906 41.171875 195.140625 C 48.582031 194.46875 55.957031 193.484375 63.269531 192.167969 C 68.886719 191.152344 74.492188 190.058594 80.054688 188.769531 C 86.023438 187.375 91.960938 185.800781 97.867188 184.144531 C 105.433594 182.023438 112.894531 179.546875 120.230469 176.730469 C 122.429688 175.886719 124.601562 174.980469 126.777344 174.0625 C 126.246094 176.015625 126.347656 178.070312 127.175781 180.179688 C 128.0625 182.429688 129.160156 184.601562 130.425781 186.671875 C 131.445312 188.328125 132.449219 190 133.347656 191.722656 C 134.320312 193.578125 135.433594 195.378906 135.894531 197.71875 C 135.402344 198.164062 134.992188 198.554688 134.558594 198.914062 C 130.617188 202.164062 126.992188 205.746094 123.722656 209.675781 C 121.996094 211.753906 120.625 214.03125 119.550781 216.492188 C 118.917969 217.933594 118.691406 219.433594 119.546875 220.851562 C 121.515625 221.785156 122.949219 221.820312 124.957031 220.945312 C 128.945312 219.210938 132.453125 216.765625 135.3125 213.484375 C 138.578125 209.746094 139.9375 205.402344 139.183594 200.441406 C 139.0625 199.652344 139.039062 198.851562 138.964844 198.035156 C 140.851562 196.59375 142.78125 195.417969 144.761719 194.332031 C 146.746094 193.246094 148.738281 192.171875 150.769531 191.164062 C 152.863281 190.117188 154.976562 189.101562 157.125 188.167969 C 159.199219 187.261719 161.300781 186.386719 163.4375 185.644531 C 165.554688 184.914062 167.726562 184.371094 170.285156 183.621094 C 169.824219 183.375 169.621094 183.164062 169.417969 183.164062 Z M 136.921875 204.847656 C 136.542969 207.75 135.226562 210.214844 133.277344 212.34375 C 130.507812 215.371094 127.207031 217.640625 123.371094 219.109375 C 122.621094 219.402344 121.871094 219.738281 120.714844 219.335938 C 120.652344 218.9375 120.46875 218.519531 120.570312 218.1875 C 121.011719 216.722656 121.542969 215.304688 122.390625 213.984375 C 125.585938 209.027344 129.789062 205.046875 134.300781 201.351562 C 134.910156 200.855469 135.632812 200.496094 136.433594 199.988281 C 137.078125 201.683594 137.136719 203.246094 136.921875 204.847656 Z M 136.921875 204.847656 " fill-opacity="1" fill-rule="nonzero"/></g><g clip-path="url(#0b39d3ae91)"><path fill="#231f20" d="M 256.222656 168.5 C 258.738281 167.574219 260.226562 165.851562 260.996094 163.453125 C 261.429688 162.117188 261.34375 160.914062 260.175781 159.816406 C 258.613281 159.210938 257.023438 159.421875 255.667969 160.464844 C 253.734375 161.96875 252.328125 163.839844 252.410156 166.519531 C 252.820312 167.117188 253.25 167.722656 253.652344 168.308594 C 254.589844 168.378906 255.453125 168.441406 256.222656 168.5 Z M 256.222656 168.5 " fill-opacity="1" fill-rule="nonzero"/></g><g clip-path="url(#bd8214b4b7)"><path fill="#231f20" d="M 505.203125 166.171875 C 504.5 165.402344 503.808594 164.753906 502.785156 164.5625 C 501.847656 164.378906 500.914062 164.082031 499.972656 163.988281 C 498.898438 163.882812 497.800781 163.964844 496.714844 163.976562 C 493.339844 163.988281 490.03125 164.65625 486.691406 164.941406 C 481.820312 165.375 477.0625 166.382812 472.253906 167.160156 C 467.132812 167.992188 462.050781 169.128906 456.976562 170.25 C 449.683594 171.851562 442.394531 173.484375 435.128906 175.25 C 429.023438 176.738281 422.972656 178.433594 416.890625 180.019531 C 409.765625 181.878906 402.617188 183.683594 395.5 185.582031 C 387.226562 187.789062 378.988281 190.136719 370.703125 192.304688 C 362.210938 194.523438 353.675781 196.613281 345.140625 198.679688 C 339.238281 200.105469 333.316406 201.503906 327.367188 202.722656 C 319.953125 204.238281 312.476562 205.574219 305.015625 206.992188 C 294.894531 208.910156 284.714844 210.460938 274.46875 211.558594 C 269.617188 212.085938 264.757812 212.554688 259.886719 212.75 C 255.78125 212.929688 251.664062 212.882812 247.546875 212.597656 C 244.121094 212.359375 240.9375 211.53125 237.855469 210.175781 C 235.332031 209.066406 233.542969 207.21875 233.109375 204.4375 C 232.726562 202.042969 232.976562 199.605469 234.238281 197.542969 C 236.761719 193.414062 239.058594 189.125 242.46875 185.59375 C 243.214844 184.820312 243.960938 184.03125 244.753906 183.3125 C 245.882812 182.300781 246.089844 180.902344 246.535156 179.535156 C 246.222656 178.773438 245.90625 177.996094 245.644531 177.363281 C 244.117188 176.480469 242.714844 176.992188 241.953125 177.003906 C 239.261719 177.753906 238.671875 180.136719 236.75 181.023438 C 236.339844 181.21875 236.148438 181.886719 235.820312 182.308594 C 235.425781 182.824219 235.039062 183.335938 234.59375 183.8125 C 230.289062 188.394531 228.050781 193.890625 227.632812 200.078125 C 227.308594 204.769531 228.882812 208.714844 232.945312 211.492188 C 235.046875 212.929688 237.332031 213.914062 239.796875 214.335938 C 242.464844 214.796875 245.179688 215.113281 247.886719 215.195312 C 256.023438 215.445312 264.113281 214.703125 272.1875 213.738281 C 277.246094 213.132812 282.292969 212.402344 287.328125 211.613281 C 293.652344 210.621094 299.972656 209.589844 306.257812 208.414062 C 312.871094 207.164062 319.433594 205.746094 326.007812 204.339844 C 332.160156 203.027344 338.304688 201.691406 344.429688 200.246094 C 354.25 197.929688 364.042969 195.523438 373.839844 193.121094 C 381.523438 191.246094 389.199219 189.332031 396.867188 187.40625 C 403.910156 185.632812 410.933594 183.773438 417.976562 182.027344 C 424.816406 180.335938 431.621094 178.535156 438.519531 177.125 C 446.257812 175.535156 453.929688 173.625 461.730469 172.339844 C 465.566406 171.71875 469.382812 170.933594 473.230469 170.328125 C 480.398438 169.195312 487.597656 168.359375 494.863281 168.070312 C 496.476562 168.011719 498.082031 167.929688 499.734375 168.585938 C 499.648438 169.503906 499.578125 170.339844 499.496094 171.230469 C 500.324219 171.765625 501.117188 172.292969 501.742188 172.699219 C 504.304688 172.578125 504.863281 170.769531 505.566406 169.046875 C 505.441406 168.082031 505.316406 167.128906 505.203125 166.183594 Z M 505.203125 166.171875 " fill-opacity="1" fill-rule="nonzero"/></g></svg>